<?xml version="1.0" encoding="UTF-8"?>
<svg id="Livello_1" data-name="Livello 1" xmlns="http://www.w3.org/2000/svg" viewBox="0 0 796.59 828.9">
  <defs>
    <style>
      .cls-1 {
        fill: #1d1d1b;
      }
    </style>
  </defs>
  <path class="cls-1" d="m455.42,0l-.39,179.64-105.27,145.56-170.73-55.89L73.12,124.22c12.8-8.95,56.23-36.92,116.69-32.73,48.43,3.36,82.08,25.57,95.59,35.64,4.52-14.72,20.46-59.98,66.91-93.38C395.45,2.73,439.56.17,455.42,0Z"/>
  <path class="cls-1" d="m8.2,213.42l170.73,55.89,105.91,145.1-105.91,145.1-170.73,55.89c-4.56-14.94-17.74-64.89,4.93-121.09,18.16-45.02,49.69-70.16,63.43-79.9-12.6-8.85-50.72-38-68.13-92.49-16.17-50.62-4.97-93.36-.23-108.49Z"/>
  <path class="cls-1" d="m796.58,359.28l-170.97,55.14-170.97-55.14.39-179.64,105.27-145.56c12.47,9.41,52.49,42.07,67.19,100.86,11.77,47.1,1.04,85.97-4.35,101.92,15.39-.25,63.37.93,109.48,34.78,42.83,31.45,58.89,72.61,63.96,87.64Z"/>
  <path class="cls-1" d="m73.04,704.68l105.91-145.1,170.73-55.89,105.27,145.56.39,179.64c-15.62-.28-67.19-3.18-113.64-42.11-37.21-31.18-51.38-68.94-56.39-85.02-12.31,9.25-51.81,36.5-109.02,36.21-53.14-.26-90.32-24.12-103.25-33.3Z"/>
  <path class="cls-1" d="m560.31,794.79l-105.27-145.56-.39-179.64,170.97-55.14,170.97,55.14c-5.1,14.77-23.79,62.92-75.17,95.07-41.16,25.75-81.44,27.56-98.28,27.36,4.99,14.56,18.7,60.55.75,114.87-16.67,50.45-50.85,78.45-63.58,87.91Z"/>
</svg>